<svg id="Layer_1" data-name="Layer 1" xmlns="http://www.w3.org/2000/svg" viewBox="0 0 488.68 485.84"><path d="M319.48,347.54H285.13A15.15,15.15,0,0,1,270,332.4V276.8A15.05,15.05,0,0,1,274.48,266a15.31,15.31,0,0,1,10.81-4.37l37.75.41v-71l-55.66.29-12,40.87a8,8,0,0,1-15.2.6l-15.71-41.24-3.47,0a3.56,3.56,0,0,0-3.53,3.53l-.55,100.4a15.14,15.14,0,0,1-15.27,15.06l-50.58-.48a15.18,15.18,0,0,1-15-15.13V151.2a15.15,15.15,0,0,1,15.14-15.14H205.3a15.21,15.21,0,0,1,14.14,9.75l13,34.14,26.25-.14L278.61,112a15.22,15.22,0,0,1,14.52-10.87h26.35a15.15,15.15,0,0,1,15.14,15.14v63.14h1.85l.54.11c13.1,2.46,37.87,15.3,37.87,46.27s-25.48,44.79-38.94,47.86l-.67.16h-.65V332.4A15.15,15.15,0,0,1,319.48,347.54Zm-34.36-74.29a3.55,3.55,0,0,0-3.55,3.55v55.6a3.57,3.57,0,0,0,3.56,3.56h34.35A3.57,3.57,0,0,0,323,332.4V273.66l-37.88-.41ZM151.22,147.64a3.57,3.57,0,0,0-3.56,3.56V295a3.56,3.56,0,0,0,3.52,3.55l50.58.48a3.53,3.53,0,0,0,2.53-1,3.49,3.49,0,0,0,1.06-2.51l.55-100.4a15.2,15.2,0,0,1,14.19-15l-11.47-30.1a3.57,3.57,0,0,0-3.32-2.29ZM334.62,191v71c5.75-1.7,28.68-10.14,28.68-36.23,0-27.22-24.05-33.89-27.95-34.79Zm-97.77.51,10.4,27.32,8.05-27.41Zm56.28-78.79a3.57,3.57,0,0,0-3.41,2.56l-18.93,64.48,52.25-.28v-63.2a3.57,3.57,0,0,0-3.56-3.56Z"/><circle cx="243.07" cy="243.15" r="200.5" style="fill:none;stroke:#0a8c44;stroke-miterlimit:10;stroke-width:8px"/><text transform="translate(138.98 124.93) scale(0.98 1)" style="font-size:27.274065017700195px;font-family:ArialRoundedMTBold, Arial Rounded MT Bold">EN<tspan x="38.91" y="0" style="letter-spacing:-0.05077525918142694em">V</tspan><tspan x="56.29" y="0">ASES</tspan></text><text transform="translate(128.06 380.76) scale(0.99 1)" style="font-size:39.45199203491211px;font-family:SugoProClassicTrial-Regular, Sugo Pro Classic Trial">Calidad y servicio</text></svg>